# xmcd
#
# Track frame offsets: 
#        150
#        674
#        18043
#        34471
#        56118
#        73729
#        92087
#        109809
#        128722
#        143859
#        162075
#        184060
#        199888
#        217996
#        232830
#        243706
#        266395
#        278389
#        296341
#        316852
#
# Disc length: 4432 seconds
#
# Revision: 0
# Processed by: cddbd v1.5.2PL0 Copyright (c) Steve Scherf et al.
# Submitted via: ExactAudioCopy v0.99pb4
#
DISCID=16114e14
DTITLE=Various Artist - prevue promo 1080A-1
DYEAR=2001
DGENRE=pop
TTITLE0=data - blank
TTITLE1=Brian McKnight - Still
TTITLE2=Bee Gees - Emotion(NEW - Album Version)
TTITLE3=Mariah Care - Never Too Far-Hero(Semi-Patriotic)
TTITLE4=Dakota Moon - Looking For A Place To Land(NBC TV Fall Season T
TTITLE4=heme Song)
TTITLE5=J. Lo - Ain't It Funny
TTITLE6=Artists For Life (All Star Tribute) - What's Going On
TTITLE7=Destiny's Child - Emotion(The Neptunes Remix)
TTITLE8=Soluna - Bring It To Me(Victor Calderone Radio Remix)
TTITLE9=Petey Pablo - Raise Up(USA Remix)
TTITLE10=Gillian Welch - Elvis Presley Blues
TTITLE11=Charlie Daniels Band, The - This Ain't No Rag, It's A Flag(Pa
TTITLE11=triotic)
TTITLE12=Spiritualized - Stop Your Crying(Radio Edit)
TTITLE13=Col Parker - All The Kings Horses
TTITLE14=Deep Blue Something - Who Wants It
TTITLE15=Widespread Panic - Little Lilly
TTITLE16=Green Day - Poprocks and Coke
TTITLE17=They Might Be Giants - Man, It's Loud In Here
TTITLE18=Halford - Prisoner Of Your Eyes
TTITLE19=ILL Nino - What Comes Around
EXTD=
EXTT0=
EXTT1=
EXTT2=
EXTT3=
EXTT4=
EXTT5=
EXTT6=
EXTT7=
EXTT8=
EXTT9=
EXTT10=
EXTT11=
EXTT12=
EXTT13=
EXTT14=
EXTT15=
EXTT16=
EXTT17=
EXTT18=
EXTT19=
PLAYORDER=
